<svg width="16" height="16" viewBox="0 0 16 16" fill="none" xmlns="http://www.w3.org/2000/svg">
<path d="M5.875 13.5C5.875 13.6731 5.82368 13.8422 5.72754 13.9861C5.63139 14.13 5.49473 14.2422 5.33485 14.3084C5.17496 14.3746 4.99903 14.3919 4.8293 14.3582C4.65956 14.3244 4.50365 14.2411 4.38128 14.1187C4.25891 13.9963 4.17557 13.8404 4.14181 13.6707C4.10805 13.501 4.12538 13.325 4.19161 13.1652C4.25783 13.0053 4.36998 12.8686 4.51388 12.7725C4.65777 12.6763 4.82694 12.625 5 12.625C5.23206 12.625 5.45462 12.7172 5.61872 12.8813C5.78281 13.0454 5.875 13.2679 5.875 13.5ZM11.5 12.625C11.3269 12.625 11.1578 12.6763 11.0139 12.7725C10.87 12.8686 10.7578 13.0053 10.6916 13.1652C10.6254 13.325 10.6081 13.501 10.6418 13.6707C10.6756 13.8404 10.7589 13.9963 10.8813 14.1187C11.0037 14.2411 11.1596 14.3244 11.3293 14.3582C11.499 14.3919 11.675 14.3746 11.8348 14.3084C11.9947 14.2422 12.1314 14.13 12.2275 13.9861C12.3237 13.8422 12.375 13.6731 12.375 13.5C12.375 13.2679 12.2828 13.0454 12.1187 12.8813C11.9546 12.7172 11.7321 12.625 11.5 12.625V12.625ZM14.2177 4.603L12.5678 10.3778C12.4849 10.6646 12.3112 10.9168 12.0729 11.0966C11.8345 11.2764 11.5443 11.3741 11.2458 11.375H5.25425C4.95568 11.3741 4.66546 11.2764 4.42711 11.0965C4.18875 10.9167 4.0151 10.6645 3.93219 10.3777L2.28419 4.60969C2.28287 4.60537 2.28162 4.60104 2.28044 4.59669L1.67156 2.46569C1.66403 2.43961 1.64825 2.41667 1.62658 2.40032C1.60491 2.38397 1.57852 2.37508 1.55138 2.375H0.5C0.400544 2.375 0.305161 2.33549 0.234835 2.26517C0.164509 2.19484 0.125 2.09946 0.125 2C0.125 1.90054 0.164509 1.80516 0.234835 1.73483C0.305161 1.66451 0.400544 1.625 0.5 1.625H1.55138C1.74138 1.6256 1.92606 1.68777 2.07776 1.80219C2.22945 1.9166 2.33997 2.0771 2.39275 2.25962L2.92575 4.125H13.8571C13.9152 4.12499 13.9724 4.13846 14.0244 4.16434C14.0763 4.19022 14.1216 4.22781 14.1565 4.27415C14.1915 4.32049 14.2152 4.37431 14.2258 4.43137C14.2365 4.48844 14.2337 4.54719 14.2177 4.603H14.2177ZM13.36 4.875H3.14L4.65338 10.1717C4.69105 10.3021 4.76996 10.4167 4.8783 10.4984C4.98663 10.5802 5.11854 10.6246 5.25425 10.625H11.2458C11.3814 10.6246 11.5134 10.5802 11.6217 10.4985C11.73 10.4167 11.8089 10.3021 11.8466 10.1718L13.36 4.875Z" fill="black"/>
</svg>
