<svg width="25" height="25" viewBox="0 0 25 25" fill="none" xmlns="http://www.w3.org/2000/svg">
<path d="M9.17969 21.0938C9.17969 21.3642 9.0995 21.6285 8.94927 21.8533C8.79905 22.0782 8.58552 22.2534 8.3357 22.3569C8.08588 22.4603 7.81098 22.4874 7.54578 22.4347C7.28057 22.3819 7.03696 22.2517 6.84575 22.0605C6.65455 21.8693 6.52434 21.6257 6.47158 21.3605C6.41883 21.0953 6.4459 20.8204 6.54938 20.5705C6.65286 20.3207 6.8281 20.1072 7.05293 19.957C7.27776 19.8067 7.5421 19.7266 7.8125 19.7266C8.1751 19.7266 8.52285 19.8706 8.77925 20.127C9.03565 20.3834 9.17969 20.7311 9.17969 21.0938ZM17.9688 19.7266C17.6983 19.7266 17.434 19.8067 17.2092 19.957C16.9843 20.1072 16.8091 20.3207 16.7056 20.5705C16.6022 20.8204 16.5751 21.0953 16.6278 21.3605C16.6806 21.6257 16.8108 21.8693 17.002 22.0605C17.1932 22.2517 17.4368 22.3819 17.702 22.4347C17.9672 22.4874 18.2421 22.4603 18.492 22.3569C18.7418 22.2534 18.9553 22.0782 19.1055 21.8533C19.2558 21.6285 19.3359 21.3642 19.3359 21.0938C19.3359 20.7311 19.1919 20.3834 18.9355 20.127C18.6791 19.8706 18.3314 19.7266 17.9688 19.7266V19.7266ZM22.2151 7.19219L19.6372 16.2152C19.5076 16.6634 19.2363 17.0575 18.8639 17.3384C18.4914 17.6193 18.038 17.772 17.5715 17.7734H8.20977C7.74325 17.772 7.28979 17.6193 6.91736 17.3384C6.54492 17.0574 6.27359 16.6633 6.14404 16.2151L3.56904 7.20264C3.56699 7.19589 3.56504 7.18912 3.56318 7.18232L2.61182 3.85264C2.60005 3.81188 2.57539 3.77605 2.54153 3.7505C2.50767 3.72495 2.46644 3.71107 2.42402 3.71094H0.78125C0.62585 3.71094 0.476814 3.64921 0.36693 3.53932C0.257045 3.42944 0.195313 3.2804 0.195312 3.125C0.195312 2.9696 0.257045 2.82056 0.36693 2.71068C0.476814 2.60079 0.62585 2.53906 0.78125 2.53906H2.42402C2.7209 2.54 3.00948 2.63714 3.24649 2.81592C3.48351 2.99469 3.6562 3.24547 3.73867 3.53066L4.57148 6.44531H21.6518C21.7425 6.4453 21.8319 6.46634 21.9131 6.50678C21.9943 6.54722 22.065 6.60596 22.1196 6.67836C22.1742 6.75076 22.2113 6.83485 22.2279 6.92402C22.2445 7.01318 22.2401 7.10498 22.2152 7.19219H22.2151ZM20.875 7.61719H4.90625L7.2709 15.8933C7.32976 16.097 7.45307 16.2761 7.62234 16.4038C7.79162 16.5315 7.99773 16.6009 8.20977 16.6016H17.5715C17.7835 16.6009 17.9896 16.5315 18.1589 16.4038C18.3282 16.2762 18.4515 16.097 18.5104 15.8934L20.875 7.61719Z" fill="white"/>
</svg>
